<svg xmlns="http://www.w3.org/2000/svg" height="40" viewBox="0 -960 960 960" width="40"><path d="M106.666-240q-21 0-30-18.333t3.334-35l173.333-231.001q5.334-6.666 12.167-9.999 6.833-3.334 14.5-3.334t14.5 3.334q6.833 3.333 12.167 9.999L470-306.666h316.667L560-608.001 443.333-453.333l-42-55.333 132-175.668q5.334-6.666 12.167-9.999 6.833-3.334 14.5-3.334t14.5 3.334q6.833 3.333 12.167 9.999L880-293.333q12.333 16.667 3.334 35-9 18.333-30 18.333H106.666Zm336.667-66.666h343.334H460h56.833-73.5Zm-270 0h213.334L280-449.001 173.333-306.666Zm0 0h213.334-213.334Z"/></svg>